<svg id="ekdRes693rp1" xmlns="http://www.w3.org/2000/svg" xmlns:xlink="http://www.w3.org/1999/xlink" viewBox="0 0 350 350" shape-rendering="geometricPrecision" text-rendering="geometricPrecision">
<g id="ekdRes693rp2_ts" transform="translate(175,175) scale(0,0)"><ellipse id="ekdRes693rp2" rx="125" ry="125" transform="translate(0,0)" fill="#fab0a4" stroke-width="0"/></g><g id="ekdRes693rp3_ts" transform="translate(175,175) scale(0,0)"><g transform="translate(-124.999999,-125)"><circle r="125" transform="translate(125 125)" fill="#fff"/><path d="M125,0C100.277,0,76.1099,7.33112,55.5538,21.0663C34.9976,34.8015,18.9761,54.3238,9.51511,77.1646C0.05416,100.005,-2.42126,125.139,2.4019,149.386c4.82315,24.248,16.7282,46.521,34.2098,64.002c17.4816,17.482,39.7544,29.387,64.0023,34.21c24.247,4.823,49.381,2.348,72.221-7.113c22.841-9.461,42.364-25.483,56.099-46.039s21.066-44.723,21.066-69.446c0-33.1521-13.17-64.9463-36.612-88.3884s-55.236-36.6116-88.388-36.6116v0ZM114.063,52.3437c0-2.9008,1.152-5.6828,3.203-7.7339c2.051-2.0512,4.833-3.2036,7.734-3.2036s5.683,1.1524,7.734,3.2036c2.051,2.0511,3.204,4.8331,3.204,7.7339v93.7503c0,2.901-1.153,5.683-3.204,7.734s-4.833,3.203-7.734,3.203-5.683-1.152-7.734-3.203-3.203-4.833-3.203-7.734v-93.7503ZM125,207.031c-2.781,0-5.5-.825-7.813-2.37-2.312-1.545-4.115-3.741-5.179-6.311-1.064-2.569-1.343-5.397-.8-8.125.542-2.728,1.882-5.233,3.848-7.2c1.967-1.967,4.473-3.306,7.201-3.849c2.727-.542,5.555-.264,8.125.801c2.569,1.064,4.765,2.866,6.311,5.179c1.545,2.313,2.37,5.031,2.37,7.813c0,3.729-1.482,7.306-4.119,9.943-2.638,2.638-6.214,4.119-9.944,4.119Z" fill="#ff6347"/></g></g></svg>
