<svg width="739" height="673" viewBox="0 0 739 673" fill="none" xmlns="http://www.w3.org/2000/svg">
<path d="M154.23 569H16.1592C7.76577 569 -0.810091 563.105 0.0612546 554.754C0.735729 548.29 5.4242 544.1 11.8251 542.986C17.0983 542.069 24.8273 547.322 24.8273 547.322C24.8273 547.322 27.1476 540.265 30.3997 537.412C34.5012 533.814 40.925 534.315 40.925 534.315C40.0995 530.392 41.3563 526.489 44.6399 522.547C48.7676 517.592 54.5463 514.495 58.8804 513.257C63.2144 512.018 68.6428 511.194 75.5975 513.257C83.5743 515.622 89.8379 523.786 89.8379 523.786C93.7592 521.308 100.983 517.592 106.555 516.353C112.127 515.115 116.461 515.734 123.891 520.07C131.321 524.405 136.274 537.412 136.274 537.412C136.274 537.412 147.374 532.411 154.23 534.315C161.486 536.33 166.611 540.022 168.47 547.322C170.97 557.139 164.356 569 154.23 569Z" fill="#26B6E3"/>
<path d="M637.311 665.958L675.128 645.71L637.758 617.063L658.154 601.147L564 551.794L617.525 606.013L598.084 621.815L637.311 665.958Z" fill="#FCC822"/>
<circle cx="371" cy="335" r="264" fill="#FCC822"/>
<ellipse cx="370.5" cy="334.5" rx="233.5" ry="225.5" fill="white"/>
<ellipse cx="371" cy="335" rx="221" ry="217" fill="#FCC822"/>
<rect x="399.252" y="35" width="30.6011" height="46" transform="rotate(16.7434 399.252 35)" fill="#FCC822"/>
<rect x="385.641" y="6" width="80" height="30" transform="rotate(16.74 385.641 6)" fill="#FCC822"/>
<path d="M356.575 344.318C358.307 337.041 361.262 330.96 365.44 326.075C369.761 321.224 376.311 316.828 385.088 312.887C391.21 309.972 395.521 307.379 398.021 305.11C400.555 302.698 402.23 299.78 403.045 296.355C404.369 290.791 403.408 285.964 400.16 281.874C397.089 277.675 391.986 274.727 384.852 273.028C379.43 271.738 373.631 271.714 367.456 272.958C361.314 274.059 355.325 276.101 349.489 279.084L341.63 263.644C349.124 259.398 357.185 256.567 365.814 255.154C374.476 253.597 382.945 253.804 391.221 255.774C398.926 257.608 405.523 260.611 411.013 264.782C416.537 268.811 420.399 273.801 422.601 279.753C424.945 285.738 425.268 292.298 423.57 299.432C421.94 306.281 419.192 311.808 415.326 316.014C411.637 320.111 405.968 323.661 398.317 326.665C393.147 328.751 388.921 330.986 385.64 333.371C382.392 335.613 379.79 338.311 377.834 341.463C376.054 344.507 374.637 348.241 373.584 352.664L373.075 354.804L354.69 352.237L356.575 344.318ZM353.021 398.2C350.595 397.622 348.465 396.437 346.631 394.643C344.762 392.992 343.424 391.015 342.615 388.712C341.983 386.3 341.956 383.881 342.533 381.456C343.11 379.03 344.208 376.954 345.824 375.229C347.618 373.394 349.721 372.161 352.133 371.529C354.579 370.754 357.014 370.656 359.44 371.233C361.865 371.81 363.995 372.996 365.83 374.789C367.698 376.44 368.949 378.472 369.581 380.884C370.389 383.187 370.505 385.551 369.928 387.977C369.35 390.402 368.165 392.532 366.371 394.367C364.754 396.093 362.74 397.272 360.328 397.904C357.882 398.678 355.446 398.777 353.021 398.2Z" fill="white"/>
<path d="M365.44 326.075L363.947 324.745L363.933 324.76L363.92 324.775L365.44 326.075ZM385.088 312.887L385.908 314.711L385.928 314.702L385.948 314.692L385.088 312.887ZM398.021 305.11L399.365 306.591L399.383 306.575L399.4 306.559L398.021 305.11ZM400.16 281.874L398.546 283.054L398.569 283.086L398.594 283.117L400.16 281.874ZM367.456 272.958L367.808 274.926L367.829 274.923L367.85 274.919L367.456 272.958ZM349.489 279.084L347.706 279.991L348.615 281.776L350.399 280.865L349.489 279.084ZM341.63 263.644L340.644 261.904L338.98 262.847L339.848 264.552L341.63 263.644ZM365.814 255.154L366.137 257.127L366.152 257.125L366.168 257.122L365.814 255.154ZM411.013 264.782L409.803 266.375L409.818 266.387L409.834 266.398L411.013 264.782ZM422.601 279.753L420.725 280.447L420.732 280.464L420.739 280.482L422.601 279.753ZM415.326 316.014L413.854 314.66L413.847 314.668L413.84 314.676L415.326 316.014ZM398.317 326.665L397.587 324.803L397.578 324.806L397.569 324.81L398.317 326.665ZM385.64 333.371L386.776 335.017L386.796 335.003L386.816 334.989L385.64 333.371ZM377.834 341.463L376.134 340.409L376.12 340.431L376.107 340.454L377.834 341.463ZM373.075 354.804L372.798 356.785L374.6 357.036L375.021 355.267L373.075 354.804ZM354.69 352.237L352.744 351.774L352.235 353.913L354.413 354.217L354.69 352.237ZM346.631 394.643L348.029 393.213L347.993 393.178L347.955 393.144L346.631 394.643ZM342.615 388.712L340.68 389.219L340.701 389.298L340.728 389.374L342.615 388.712ZM345.824 375.229L344.394 373.831L344.38 373.846L344.365 373.861L345.824 375.229ZM352.133 371.529L352.64 373.464L352.688 373.451L352.737 373.436L352.133 371.529ZM365.83 374.789L364.432 376.22L364.468 376.255L364.506 376.288L365.83 374.789ZM369.581 380.884L367.646 381.391L367.667 381.469L367.694 381.546L369.581 380.884ZM366.371 394.367L364.941 392.969L364.926 392.984L364.912 393L366.371 394.367ZM360.328 397.904L359.821 395.969L359.772 395.982L359.724 395.997L360.328 397.904ZM358.52 344.781C360.191 337.763 363.02 331.982 366.96 327.375L363.92 324.775C359.505 329.938 356.423 336.32 354.629 343.855L358.52 344.781ZM366.934 327.405C370.999 322.841 377.274 318.587 385.908 314.711L384.269 311.062C375.347 315.068 368.523 319.607 363.947 324.745L366.934 327.405ZM385.948 314.692C392.106 311.76 396.638 309.066 399.365 306.591L396.677 303.629C394.403 305.693 390.314 308.183 384.229 311.081L385.948 314.692ZM399.4 306.559C402.216 303.878 404.086 300.617 404.99 296.818L401.099 295.892C400.373 298.943 398.894 301.518 396.642 303.661L399.4 306.559ZM404.99 296.818C406.442 290.722 405.395 285.251 401.726 280.63L398.594 283.117C401.42 286.677 402.297 290.86 401.099 295.892L404.99 296.818ZM401.774 280.693C398.326 275.979 392.724 272.846 385.315 271.083L384.389 274.974C391.248 276.607 395.851 279.371 398.546 283.054L401.774 280.693ZM385.315 271.083C379.577 269.717 373.483 269.704 367.061 270.997L367.85 274.919C373.78 273.725 379.283 273.759 384.389 274.974L385.315 271.083ZM367.103 270.989C360.757 272.127 354.581 274.235 348.578 277.303L350.399 280.865C356.068 277.967 361.87 275.991 367.808 274.926L367.103 270.989ZM351.271 278.177L343.413 262.737L339.848 264.552L347.706 279.991L351.271 278.177ZM342.616 265.384C349.902 261.256 357.738 258.503 366.137 257.127L365.491 253.18C356.633 254.631 348.347 257.539 340.644 261.904L342.616 265.384ZM366.168 257.122C374.569 255.613 382.759 255.816 390.758 257.72L391.684 253.829C383.131 251.793 374.384 251.582 365.46 253.185L366.168 257.122ZM390.758 257.72C398.232 259.499 404.565 262.395 409.803 266.375L412.223 263.19C406.481 258.827 399.619 255.718 391.684 253.829L390.758 257.72ZM409.834 266.398C415.066 270.214 418.671 274.893 420.725 280.447L424.477 279.059C422.128 272.709 418.008 267.408 412.191 263.166L409.834 266.398ZM420.739 280.482C422.914 286.036 423.242 292.174 421.625 298.969L425.516 299.895C427.295 292.422 426.977 285.44 424.463 279.023L420.739 280.482ZM421.625 298.969C420.055 305.562 417.44 310.758 413.854 314.66L416.799 317.367C420.943 312.858 423.825 307 425.516 299.895L421.625 298.969ZM413.84 314.676C410.435 318.457 405.078 321.862 397.587 324.803L399.048 328.526C406.857 325.46 412.839 321.765 416.813 317.352L413.84 314.676ZM397.569 324.81C392.299 326.936 387.917 329.244 384.464 331.753L386.816 334.989C389.926 332.728 393.995 330.565 399.066 328.519L397.569 324.81ZM384.503 331.725C381.044 334.114 378.245 337.008 376.134 340.409L379.533 342.518C381.335 339.614 383.74 337.113 386.776 335.017L384.503 331.725ZM376.107 340.454C374.204 343.709 372.725 347.638 371.639 352.201L375.53 353.127C376.55 348.843 377.904 345.305 379.56 342.473L376.107 340.454ZM371.639 352.201L371.129 354.341L375.021 355.267L375.53 353.127L371.639 352.201ZM373.352 352.823L354.966 350.256L354.413 354.217L372.798 356.785L373.352 352.823ZM356.635 352.7L358.52 344.781L354.629 343.855L352.744 351.774L356.635 352.7ZM353.484 396.254C351.421 395.763 349.612 394.761 348.029 393.213L345.232 396.073C347.318 398.112 349.769 399.481 352.558 400.145L353.484 396.254ZM347.955 393.144C346.337 391.714 345.195 390.023 344.502 388.049L340.728 389.374C341.652 392.007 343.188 394.27 345.306 396.142L347.955 393.144ZM344.55 388.205C344.001 386.111 343.977 384.025 344.479 381.919L340.587 380.993C339.934 383.737 339.965 386.489 340.68 389.219L344.55 388.205ZM344.479 381.919C344.98 379.813 345.918 378.054 347.284 376.596L344.365 373.861C342.497 375.855 341.241 378.248 340.587 380.993L344.479 381.919ZM347.255 376.627C348.802 375.044 350.589 374.001 352.64 373.464L351.626 369.594C348.853 370.321 346.434 371.745 344.394 373.831L347.255 376.627ZM352.737 373.436C354.847 372.767 356.914 372.688 358.977 373.179L359.903 369.287C357.114 368.624 354.31 368.741 351.529 369.622L352.737 373.436ZM358.977 373.179C361.039 373.67 362.849 374.672 364.432 376.22L367.228 373.359C365.142 371.32 362.692 369.951 359.903 369.287L358.977 373.179ZM364.506 376.288C366.077 377.676 367.115 379.363 367.646 381.391L371.515 380.377C370.783 377.581 369.32 375.204 367.154 373.291L364.506 376.288ZM367.694 381.546C368.372 383.479 368.473 385.453 367.982 387.514L371.873 388.44C372.537 385.65 372.406 382.894 371.468 380.221L367.694 381.546ZM367.982 387.514C367.491 389.576 366.489 391.386 364.941 392.969L367.801 395.765C369.84 393.679 371.209 391.229 371.873 388.44L367.982 387.514ZM364.912 393C363.567 394.435 361.889 395.427 359.821 395.969L360.835 399.838C363.591 399.116 365.942 397.75 367.831 395.734L364.912 393ZM359.724 395.997C357.613 396.665 355.546 396.745 353.484 396.254L352.558 400.145C355.346 400.809 358.151 400.691 360.932 399.81L359.724 395.997Z" fill="url(#paint0_linear_25_9)"/>
<path d="M267.939 74.4897C252.302 54.7338 229.458 41.9989 204.431 39.0865C179.404 36.1741 154.246 43.3228 134.49 58.96C114.734 74.5972 101.999 97.4419 99.0865 122.469C96.1741 147.495 103.323 172.654 118.96 192.41L193.45 133.45L267.939 74.4897Z" fill="#FCC822"/>
<path d="M267.939 74.4897C252.302 54.7338 229.458 41.9989 204.431 39.0865C179.404 36.1741 154.246 43.3228 134.49 58.96C114.734 74.5972 101.999 97.4419 99.0865 122.469C96.1741 147.495 103.323 172.654 118.96 192.41L193.45 133.45L267.939 74.4897Z" fill="#FCC822"/>
<path d="M633.21 197.837C648.722 177.982 655.711 152.779 652.641 127.771C649.57 102.764 636.691 79.9998 616.837 64.4878C596.982 48.9759 571.779 41.9864 546.771 45.057C521.764 48.1275 499 61.0066 483.488 80.861L558.349 139.349L633.21 197.837Z" fill="#FCC822"/>
<path d="M633.21 197.837C648.722 177.982 655.711 152.779 652.641 127.771C649.57 102.764 636.691 79.9998 616.837 64.4878C596.982 48.9759 571.779 41.9864 546.771 45.057C521.764 48.1275 499 61.0066 483.488 80.861L558.349 139.349L633.21 197.837Z" fill="#FCC822"/>
<line x1="376" y1="135" x2="376" y2="181" stroke="#00A8C4" stroke-width="10" stroke-linecap="round"/>
<line x1="376" y1="489" x2="376" y2="535" stroke="#00A8C4" stroke-width="10" stroke-linecap="round"/>
<line x1="525" y1="330" x2="571" y2="330" stroke="#00A8C4" stroke-width="10" stroke-linecap="round"/>
<line x1="171" y1="330" x2="217" y2="330" stroke="#B946E1" stroke-width="10" stroke-linecap="round"/>
<line x1="280.247" y1="189.301" x2="290.164" y2="206.476" stroke="#00A8C4" stroke-width="7" stroke-linecap="round"/>
<line x1="453.719" y1="206.457" x2="463.635" y2="189.281" stroke="#B946E1" stroke-width="7" stroke-linecap="round"/>
<line x1="222.781" y1="245.719" x2="239.957" y2="255.635" stroke="#B946E1" stroke-width="7" stroke-linecap="round"/>
<line x1="280.719" y1="483.457" x2="290.635" y2="466.281" stroke="#00A8C4" stroke-width="7" stroke-linecap="round"/>
<line x1="452.781" y1="466.281" x2="462.698" y2="483.457" stroke="#B946E1" stroke-width="7" stroke-linecap="round"/>
<line x1="505.781" y1="404.719" x2="522.957" y2="414.635" stroke="#B946E1" stroke-width="7" stroke-linecap="round"/>
<line x1="219.281" y1="414.635" x2="236.457" y2="404.719" stroke="#00A8C4" stroke-width="7" stroke-linecap="round"/>
<line x1="502.281" y1="255.635" x2="519.457" y2="245.719" stroke="#00A8C4" stroke-width="7" stroke-linecap="round"/>
<circle cx="69" cy="309" r="31" fill="#FFC0F9"/>
<circle cx="69" cy="309" r="31" fill="#FFC0F9"/>
<circle cx="69" cy="309" r="31" fill="#FFC0F9"/>
<circle cx="69" cy="309" r="31" fill="#FFC0F9"/>
<circle cx="648" cy="418" r="44" fill="#FF67FF"/>
<circle cx="648" cy="418" r="44" fill="#FFC0F9"/>
<circle cx="648" cy="418" r="44" fill="#FFC0F9"/>
<circle cx="648" cy="418" r="44" fill="#F28DFD"/>
<circle cx="121.5" cy="221.5" r="21.5" fill="#FFC0F9"/>
<circle cx="121.5" cy="221.5" r="21.5" fill="#FFC0F9"/>
<circle cx="121.5" cy="221.5" r="21.5" fill="#FFC0F9"/>
<circle cx="121.5" cy="221.5" r="21.5" fill="#FFC0F9"/>
<circle cx="519.5" cy="620.5" r="21.5" fill="#FFC0F9"/>
<circle cx="519.5" cy="620.5" r="21.5" fill="#FFC0F9"/>
<circle cx="519.5" cy="620.5" r="21.5" fill="#FFC0F9"/>
<circle cx="519.5" cy="620.5" r="21.5" fill="#FFC0F9"/>
<path d="M60.5 23L19 37L54 66.5L31 78.5L122 132.5L73.5 78.5L95.5 66.5L60.5 23Z" fill="#26B6E3"/>
<path d="M691.043 137.536L736.046 161.159L689.734 181.992L713.818 199.268L598 231.038L664.83 189.223L641.899 172.183L691.043 137.536Z" fill="#B946E1"/>
<path d="M57.9187 444.919C50.3431 452.494 31.8929 453.594 31.8929 453.594C31.8929 453.594 50.3431 454.694 57.9187 462.269C65.4943 469.845 66.5939 488.295 66.5939 488.295C66.5939 488.295 67.6936 469.845 75.2692 462.269C82.8447 454.694 101.295 453.594 101.295 453.594C101.295 453.594 82.8447 452.494 75.2692 444.919C67.6936 437.343 66.5939 418.893 66.5939 418.893C66.5939 418.893 65.4943 437.343 57.9187 444.919Z" fill="#FFC0F9"/>
<path d="M160.649 397.649C153.737 404.562 136.902 405.565 136.902 405.565C136.902 405.565 153.737 406.568 160.649 413.481C167.562 420.393 168.565 437.228 168.565 437.228C168.565 437.228 169.568 420.393 176.481 413.481C183.393 406.568 200.228 405.565 200.228 405.565C200.228 405.565 183.393 404.562 176.481 397.649C169.568 390.737 168.565 373.902 168.565 373.902C168.565 373.902 167.562 390.737 160.649 397.649Z" fill="#B946E1"/>
<path d="M630.096 402.273C626.831 405.539 618.878 406.013 618.878 406.013C618.878 406.013 626.831 406.487 630.096 409.752C633.362 413.018 633.836 420.971 633.836 420.971C633.836 420.971 634.31 413.018 637.576 409.752C640.841 406.487 648.794 406.013 648.794 406.013C648.794 406.013 640.841 405.539 637.576 402.273C634.31 399.008 633.836 391.055 633.836 391.055C633.836 391.055 633.362 399.008 630.096 402.273Z" fill="white"/>
<path d="M545.172 83.1724C541.907 86.4379 533.954 86.9119 533.954 86.9119C533.954 86.9119 541.907 87.386 545.172 90.6514C548.438 93.9169 548.912 101.87 548.912 101.87C548.912 101.87 549.386 93.9169 552.651 90.6514C555.917 87.386 563.87 86.9119 563.87 86.9119C563.87 86.9119 555.917 86.4379 552.651 83.1724C549.386 79.9069 548.912 71.9539 548.912 71.9539C548.912 71.9539 548.438 79.9069 545.172 83.1724Z" fill="white"/>
<path d="M669.055 251.673C670.569 249.929 673.403 250.478 674.156 252.661L684.608 282.952C685.361 285.135 683.468 287.315 681.201 286.875L649.743 280.781C647.476 280.342 646.534 277.613 648.048 275.869L669.055 251.673Z" fill="#FCC822"/>
<path d="M266 116C266 116 258.581 125 249.429 125C240.276 125 242.009 116 232.857 116C223.705 116 225.438 125 216.286 125C207.134 125 208.866 116 199.714 116C190.562 116 192.295 125 183.143 125C173.991 125 175.724 116 166.571 116C157.419 116 150 125 150 125" stroke="#00A8C4" stroke-width="5"/>
<path d="M557.803 58H434.438C426.939 58 419.276 52.726 420.055 45.254C420.657 39.4702 424.846 35.721 430.566 34.7246C435.277 33.9038 442.183 38.6039 442.183 38.6039C442.183 38.6039 444.256 32.2895 447.162 29.7371C450.827 26.5179 456.566 26.9662 456.566 26.9662C455.829 23.4564 456.951 19.9637 459.885 16.4369C463.573 12.0035 468.737 9.23237 472.609 8.12428C476.482 7.01618 481.332 6.27897 487.546 8.12427C494.673 10.2408 500.269 17.5453 500.269 17.5453C503.773 15.3286 510.227 12.0035 515.206 10.8952C520.185 9.78684 524.057 10.341 530.696 14.2202C537.334 18.0994 541.76 29.7371 541.76 29.7371C541.76 29.7371 551.677 25.2629 557.803 26.9662C564.286 28.7689 568.866 32.0722 570.527 38.6039C572.76 47.3871 566.851 58 557.803 58Z" fill="#F28DFD"/>
<path d="M657 454C657 454 650.668 446 642.857 446C635.046 446 636.525 454 628.714 454C620.903 454 622.382 446 614.571 446C606.761 446 608.239 454 600.429 454C592.618 454 594.097 446 586.286 446C578.475 446 579.954 454 572.143 454C564.332 454 558 446 558 446" stroke="#00A8C4" stroke-width="5"/>
<defs>
<linearGradient id="paint0_linear_25_9" x1="366" y1="228" x2="427.5" y2="379" gradientUnits="userSpaceOnUse">
<stop stop-color="#B946E1"/>
<stop offset="1" stop-color="#00A8C4"/>
</linearGradient>
</defs>
</svg>
