<svg id="eerCdz7iIMH1" xmlns="http://www.w3.org/2000/svg" xmlns:xlink="http://www.w3.org/1999/xlink" viewBox="0 0 300 300" shape-rendering="geometricPrecision" text-rendering="geometricPrecision">
<g id="eerCdz7iIMH10" transform="translate(25 25)" opacity="0"><g id="eerCdz7iIMH11_tr" transform="translate(125,125) rotate(0)"><path d="M234.375,125c0,10.156-7.324,17.871-13.77,24.609-3.71,3.809-7.519,7.813-8.984,11.231s-1.367,8.496-1.465,13.672c-.097,9.472-.293,20.312-7.812,27.832-7.52,7.519-18.36,7.715-27.832,7.812-5.176.098-10.45.196-13.672,1.465-3.223,1.27-7.422,5.274-11.231,8.984-6.738,6.446-14.453,13.77-24.609,13.77s-17.871-7.324-24.609-13.77c-3.809-3.71-7.8129-7.519-11.2308-8.984-3.418-1.465-8.4961-1.367-13.6719-1.465-9.4727-.097-20.3125-.293-27.8321-7.812-7.5195-7.52-7.7148-18.36-7.8125-27.832-.0976-5.176-.1953-10.45-1.4648-13.672-1.2695-3.223-5.2734-7.422-8.9844-11.231C22.9492,142.871,15.625,135.156,15.625,125s7.3242-17.871,13.7695-24.609c3.711-3.809,7.5196-7.8129,8.9844-11.2308c1.4648-3.418,1.3672-8.4961,1.4648-13.6719.0977-9.4727.293-20.3125,7.8125-27.8321c7.5196-7.5195,18.3594-7.7148,27.8321-7.8125c5.1758-.0976,10.4492-.1953,13.6719-1.4648c3.2226-1.2695,7.4218-5.2734,11.2308-8.9844C107.129,22.9492,114.844,15.625,125,15.625s17.871,7.3242,24.609,13.7695c3.809,3.711,7.813,7.5196,11.231,8.9844s8.496,1.3672,13.672,1.4648c9.472.0977,20.312.293,27.832,7.8125c7.519,7.5196,7.715,18.3594,7.812,27.8321.098,5.1758.196,10.4492,1.465,13.6719c1.27,3.2226,5.274,7.4218,8.984,11.2308c6.446,6.738,13.77,14.453,13.77,24.609v0Z" transform="translate(-125,-125)" fill="#2196f3"/></g><path d="M153.098,94.1042c1.435-1.3646,3.343-2.119,5.323-2.104c1.981.015,3.878.7982,5.291,2.1843c1.414,1.3861,2.233,3.2667,2.285,5.245.053,1.9785-.666,3.8995-2.004,5.3585l-40.625,50.773c-.699.752-1.542,1.355-2.479,1.774-.938.419-1.95.645-2.976.664-1.027.019-2.047-.169-2.999-.553s-1.817-.956-2.543-1.681L85.4305,128.842c-.7503-.699-1.3521-1.542-1.7694-2.478-.4174-.936-.6418-1.946-.6599-2.971s.1705-2.042.5546-2.993c.384-.95.9557-1.813,1.6808-2.538.7252-.724,1.5889-1.296,2.5398-1.679.9508-.384,1.9693-.573,2.9946-.555s2.0365.243,2.9732.66s1.7798,1.018,2.4789,1.768l21.3209,21.296l35.361-45.0239c.063-.0784.131-.1531.203-.2239h-.01Z" fill="#fff"/></g><g id="eerCdz7iIMH13_ts" transform="translate(150.44285,152.693731) scale(0.89,0.89)"><ellipse id="eerCdz7iIMH13" rx="102.044648" ry="102.044648" transform="translate(0,0)" opacity="0" fill="none" stroke="#2196f3"/></g><g id="eerCdz7iIMH14_tr" transform="translate(69.024095,225.722351) rotate(-63.132173)"><g id="eerCdz7iIMH14_ts" transform="scale(0,0)"><path d="M40.822413,35.49237c-2.315261,4.075118-5.239485,11.653471-5.593327,15.156707-4.726589.890601-13.133765,3.221871-17.358288,6.030482c4.196414,3.058645,12.788442,6.400594,17.358288,6.326438-.062486,3.254947,2.726324,11.532406,5.593327,15.472054c2.742104-3.250244,5.496159-11.023317,6.393789-15.472056c6.567374.039171,14.516481-3.762987,16.981392-6.326434-3.724152-2.562049-11.756775-6.156322-16.981392-6.030484-.657374-4.02065-3.73607-11.629882-6.393789-15.156707Z" transform="translate(-41.034198,-56.922996)" fill="#faf062" stroke-width="0.6"/></g></g><g id="eerCdz7iIMH15_tr" transform="translate(90.3191,86.806642) rotate(0)"><g id="eerCdz7iIMH15_ts" transform="scale(0,0)"><path d="M40.822413,35.49237c-2.315261,4.075118-5.239485,11.653471-5.593327,15.156707-4.726589.890601-13.133765,3.221871-17.358288,6.030482c4.196414,3.058645,12.788442,6.400594,17.358288,6.326438-.062486,3.254947,2.726324,11.532406,5.593327,15.472054c2.742104-3.250244,5.496159-11.023317,6.393789-15.472056c6.567374.039171,14.516481-3.762987,16.981392-6.326434-3.724152-2.562049-11.756775-6.156322-16.981392-6.030484-.657374-4.02065-3.73607-11.629882-6.393789-15.156707Z" transform="translate(-41.034198,-56.922996)" fill="#faf062" stroke-width="0.6"/></g></g><g id="eerCdz7iIMH16_tr" transform="translate(225.811122,214.614809) rotate(39.935899)"><g id="eerCdz7iIMH16_ts" transform="scale(0,0)"><path d="M40.822413,35.49237c-2.315261,4.075118-5.239485,11.653471-5.593327,15.156707-4.726589.890601-13.133765,3.221871-17.358288,6.030482c4.196414,3.058645,12.788442,6.400594,17.358288,6.326438-.062486,3.254947,2.726324,11.532406,5.593327,15.472054c2.742104-3.250244,5.496159-11.023317,6.393789-15.472056c6.567374.039171,14.516481-3.762987,16.981392-6.326434-3.724152-2.562049-11.756775-6.156322-16.981392-6.030484-.657374-4.02065-3.73607-11.629882-6.393789-15.156707Z" transform="translate(-41.034198,-56.922996)" fill="#faf062" stroke-width="0.6"/></g></g><g id="eerCdz7iIMH17_tr" transform="translate(237.067643,56.830453) rotate(0)"><g id="eerCdz7iIMH17_ts" transform="scale(0,0)"><path d="M40.822413,35.49237c-2.315261,4.075118-5.239485,11.653471-5.593327,15.156707-4.726589.890601-13.133765,3.221871-17.358288,6.030482c4.196414,3.058645,12.788442,6.400594,17.358288,6.326438-.062486,3.254947,2.726324,11.532406,5.593327,15.472054c2.742104-3.250244,5.496159-11.023317,6.393789-15.472056c6.567374.039171,14.516481-3.762987,16.981392-6.326434-3.724152-2.562049-11.756775-6.156322-16.981392-6.030484-.657374-4.02065-3.73607-11.629882-6.393789-15.156707Z" transform="translate(-41.034198,-56.922996)" fill="#faf062" stroke-width="0.6"/></g></g><g id="eerCdz7iIMH18_tr" transform="translate(91.213208,149.302417) rotate(-133.498539)"><g id="eerCdz7iIMH18_ts" transform="scale(0,0)"><path d="M40.822413,35.49237c-2.315261,4.075118-5.239485,11.653471-5.593327,15.156707-4.726589.890601-13.133765,3.221871-17.358288,6.030482c4.196414,3.058645,12.788442,6.400594,17.358288,6.326438-.062486,3.254947,2.726324,11.532406,5.593327,15.472054c2.742104-3.250244,5.496159-11.023317,6.393789-15.472056c6.567374.039171,14.516481-3.762987,16.981392-6.326434-3.724152-2.562049-11.756775-6.156322-16.981392-6.030484-.657374-4.02065-3.73607-11.629882-6.393789-15.156707Z" transform="translate(-41.034198,-56.922996)" fill="#faf062" stroke-width="0.6"/></g></g></svg>
