<svg width="40" height="44" viewBox="0 0 40 44" fill="none" xmlns="http://www.w3.org/2000/svg">
<path d="M38.2877 3.11904L37.3733 2.20464C35.3921 0.223452 32.0393 0.223452 30.0581 2.20464L28.2293 4.03344C25.0289 2.50944 21.3713 1.89985 17.5614 2.35704C8.56979 3.42384 1.40702 10.5866 0.340221 19.5782C-1.03137 31.6177 8.26499 41.8285 19.9997 41.8285C23.3525 41.8285 26.5529 41.0665 29.2961 39.5425L32.6489 42.8953C32.8013 43.0477 32.9537 43.2001 33.1061 43.2001H33.2585H33.4109C33.5633 43.2001 33.5633 43.2001 33.7157 43.2001C33.8681 43.2001 33.8681 43.2001 34.0205 43.2001H34.1729H34.3253C34.4777 43.2001 34.6301 43.0477 34.7825 42.8953C34.9349 42.7429 35.0873 42.5905 35.0873 42.4381V42.2857V42.1333V41.9809V34.8181C37.9829 31.3129 39.6593 26.8933 39.6593 22.169C39.6593 18.359 38.5925 15.0062 36.7637 11.9582L38.2877 10.4342C40.2689 8.45302 40.2689 5.10023 38.2877 3.11904ZM35.2397 23.5406H36.7637C36.3065 28.5697 33.5633 32.9893 29.6009 35.7325C28.9913 36.1897 28.3817 36.4945 27.7721 36.7993C25.9433 37.7137 23.8097 38.4757 21.6761 38.6281V37.1041C21.6761 36.3421 20.9141 35.5801 20.1521 35.5801C19.3901 35.5801 18.6282 36.3421 18.6282 37.1041V38.6281C10.551 37.8661 4.15021 31.4653 3.38821 23.3882H4.9122C5.6742 23.3882 6.4362 22.6262 6.4362 21.8642C6.4362 21.1022 5.6742 20.3402 4.9122 20.3402H3.23581C3.99781 12.4154 10.3986 6.01463 18.4758 5.25263V6.77663C18.4758 7.53862 19.2377 8.30062 19.9997 8.30062C20.7617 8.30062 21.5237 7.53862 21.5237 6.77663V5.25263C29.6009 6.01463 36.0017 12.4154 36.7637 20.4926H35.2397C34.4777 20.4926 33.7157 21.2546 33.7157 22.0166C33.7157 22.7786 34.4777 23.5406 35.2397 23.5406Z" fill="#FCC822"/>
<path d="M20 8.30062V2.20464C17.1044 2.20464 14.2089 2.81424 11.7705 4.03344L9.94167 2.20464C7.96048 0.223452 4.60769 0.223452 2.6265 2.20464L1.7121 3.11904C-0.269088 5.10023 -0.269088 8.45302 1.7121 10.4342L3.0837 11.8058C1.25491 14.8538 0.18811 18.2066 0.18811 22.0166C0.18811 26.7409 1.8645 31.1605 4.76009 34.6657V41.8285C4.76009 41.9809 4.76009 42.1333 4.76009 42.2857V42.4381C4.76009 42.4381 4.76009 42.4381 4.76009 42.5905C4.76009 42.7429 4.91249 42.8953 5.06489 43.0477C5.21729 43.2001 5.36969 43.2001 5.52209 43.3525C5.52209 43.3525 5.52209 43.3525 5.67449 43.3525H5.82689C5.97929 43.3525 6.13169 43.3525 6.28409 43.3525C6.43649 43.3525 6.58889 43.3525 6.74128 43.3525H6.89368C6.89368 43.3525 6.89368 43.3525 7.04608 43.3525C7.19848 43.3525 7.35088 43.2001 7.50328 43.0477L10.8561 39.6949C13.5993 41.2189 16.7996 41.9809 20.1524 41.9809V35.8849C19.3904 35.8849 18.6284 36.6469 18.6284 37.4089V38.9329C16.3424 38.7805 14.3613 38.1709 12.5325 37.1041C11.9229 36.7993 11.3133 36.3421 10.7037 36.0373C6.74128 33.2941 3.9981 28.8745 3.5409 23.8454H5.06489C5.82689 23.8454 6.58888 23.0834 6.58888 22.3214C6.58888 21.5594 5.82689 20.7974 5.06489 20.7974H3.2361C3.9981 12.4154 10.3989 6.01463 18.476 5.25263V6.77663C18.476 7.53862 19.238 8.30062 20 8.30062Z" fill="#FCC822"/>
</svg>
